<svg xmlns="http://www.w3.org/2000/svg" viewBox="0 0 880 528" width="880" height="528" role="img" aria-label="Technology stack">
<style>
  @keyframes pop { from { opacity:0; transform:translateY(6px) scale(.96); } to { opacity:1; transform:translateY(0) scale(1); } }
  @keyframes fade { from { opacity:0; } to { opacity:1; } }
</style>

<g style="animation:fade .5s ease both">
  <rect x="12" y="4" width="856" height="56" rx="12" fill="#11161D" stroke="#232B36"/>
  <rect x="12" y="18" width="3" height="28" rx="1.5" fill="#38BDF8" opacity=".8"/>
  <text x="30" y="37.0" style="font:700 13px 'JetBrains Mono','Fira Code',ui-monospace,SFMono-Regular,Menlo,Consolas,monospace" fill="#E6EDF3">Languages</text>
  
<g style="animation:pop .5s cubic-bezier(.2,.8,.3,1) 0.00s both">
  <rect x="188.0" y="14" width="102.0" height="24" rx="7" fill="#161B22" stroke="#232B36"/>
  <circle cx="200.0" cy="26" r="3" fill="#38BDF8"/>
  <text x="210.0" y="30" style="font:500 12px 'JetBrains Mono','Fira Code',ui-monospace,SFMono-Regular,Menlo,Consolas,monospace" fill="#C9D1D9">TypeScript</text>
</g>
<g style="animation:pop .5s cubic-bezier(.2,.8,.3,1) 0.05s both">
  <rect x="298.0" y="14" width="44.4" height="24" rx="7" fill="#161B22" stroke="#232B36"/>
  <circle cx="310.0" cy="26" r="3" fill="#38BDF8"/>
  <text x="320.0" y="30" style="font:500 12px 'JetBrains Mono','Fira Code',ui-monospace,SFMono-Regular,Menlo,Consolas,monospace" fill="#C9D1D9">Go</text>
</g>
<g style="animation:pop .5s cubic-bezier(.2,.8,.3,1) 0.10s both">
  <rect x="350.4" y="14" width="102.0" height="24" rx="7" fill="#161B22" stroke="#232B36"/>
  <circle cx="362.4" cy="26" r="3" fill="#38BDF8"/>
  <text x="372.4" y="30" style="font:500 12px 'JetBrains Mono','Fira Code',ui-monospace,SFMono-Regular,Menlo,Consolas,monospace" fill="#C9D1D9">JavaScript</text>
</g>
<g style="animation:pop .5s cubic-bezier(.2,.8,.3,1) 0.15s both">
  <rect x="460.4" y="14" width="73.2" height="24" rx="7" fill="#161B22" stroke="#232B36"/>
  <circle cx="472.4" cy="26" r="3" fill="#38BDF8"/>
  <text x="482.4" y="30" style="font:500 12px 'JetBrains Mono','Fira Code',ui-monospace,SFMono-Regular,Menlo,Consolas,monospace" fill="#C9D1D9">Python</text>
</g>
<g style="animation:pop .5s cubic-bezier(.2,.8,.3,1) 0.20s both">
  <rect x="541.6" y="14" width="51.6" height="24" rx="7" fill="#161B22" stroke="#232B36"/>
  <circle cx="553.6" cy="26" r="3" fill="#38BDF8"/>
  <text x="563.6" y="30" style="font:500 12px 'JetBrains Mono','Fira Code',ui-monospace,SFMono-Regular,Menlo,Consolas,monospace" fill="#C9D1D9">SQL</text>
</g>
<g style="animation:pop .5s cubic-bezier(.2,.8,.3,1) 0.25s both">
  <rect x="601.2" y="14" width="58.8" height="24" rx="7" fill="#161B22" stroke="#232B36"/>
  <circle cx="613.2" cy="26" r="3" fill="#38BDF8"/>
  <text x="623.2" y="30" style="font:500 12px 'JetBrains Mono','Fira Code',ui-monospace,SFMono-Regular,Menlo,Consolas,monospace" fill="#C9D1D9">Bash</text>
</g>
</g>
<g style="animation:fade .5s ease both">
  <rect x="12" y="72" width="856" height="86" rx="12" fill="#11161D" stroke="#232B36"/>
  <rect x="12" y="86" width="3" height="58" rx="1.5" fill="#A78BFA" opacity=".8"/>
  <text x="30" y="120.0" style="font:700 13px 'JetBrains Mono','Fira Code',ui-monospace,SFMono-Regular,Menlo,Consolas,monospace" fill="#E6EDF3">Frontend</text>
  
<g style="animation:pop .5s cubic-bezier(.2,.8,.3,1) 0.30s both">
  <rect x="188.0" y="82" width="66.0" height="24" rx="7" fill="#161B22" stroke="#232B36"/>
  <circle cx="200.0" cy="94" r="3" fill="#A78BFA"/>
  <text x="210.0" y="98" style="font:500 12px 'JetBrains Mono','Fira Code',ui-monospace,SFMono-Regular,Menlo,Consolas,monospace" fill="#C9D1D9">React</text>
</g>
<g style="animation:pop .5s cubic-bezier(.2,.8,.3,1) 0.35s both">
  <rect x="262.0" y="82" width="80.4" height="24" rx="7" fill="#161B22" stroke="#232B36"/>
  <circle cx="274.0" cy="94" r="3" fill="#A78BFA"/>
  <text x="284.0" y="98" style="font:500 12px 'JetBrains Mono','Fira Code',ui-monospace,SFMono-Regular,Menlo,Consolas,monospace" fill="#C9D1D9">Next.js</text>
</g>
<g style="animation:pop .5s cubic-bezier(.2,.8,.3,1) 0.40s both">
  <rect x="350.4" y="82" width="123.6" height="24" rx="7" fill="#161B22" stroke="#232B36"/>
  <circle cx="362.4" cy="94" r="3" fill="#A78BFA"/>
  <text x="372.4" y="98" style="font:500 12px 'JetBrains Mono','Fira Code',ui-monospace,SFMono-Regular,Menlo,Consolas,monospace" fill="#C9D1D9">Redux Toolkit</text>
</g>
<g style="animation:pop .5s cubic-bezier(.2,.8,.3,1) 0.45s both">
  <rect x="482.0" y="82" width="130.8" height="24" rx="7" fill="#161B22" stroke="#232B36"/>
  <circle cx="494.0" cy="94" r="3" fill="#A78BFA"/>
  <text x="504.0" y="98" style="font:500 12px 'JetBrains Mono','Fira Code',ui-monospace,SFMono-Regular,Menlo,Consolas,monospace" fill="#C9D1D9">TanStack Query</text>
</g>
<g style="animation:pop .5s cubic-bezier(.2,.8,.3,1) 0.50s both">
  <rect x="620.8" y="82" width="87.6" height="24" rx="7" fill="#161B22" stroke="#232B36"/>
  <circle cx="632.8" cy="94" r="3" fill="#A78BFA"/>
  <text x="642.8" y="98" style="font:500 12px 'JetBrains Mono','Fira Code',ui-monospace,SFMono-Regular,Menlo,Consolas,monospace" fill="#C9D1D9">Tailwind</text>
</g>
<g style="animation:pop .5s cubic-bezier(.2,.8,.3,1) 0.55s both">
  <rect x="716.4" y="82" width="58.8" height="24" rx="7" fill="#161B22" stroke="#232B36"/>
  <circle cx="728.4" cy="94" r="3" fill="#A78BFA"/>
  <text x="738.4" y="98" style="font:500 12px 'JetBrains Mono','Fira Code',ui-monospace,SFMono-Regular,Menlo,Consolas,monospace" fill="#C9D1D9">Vite</text>
</g>
<g style="animation:pop .5s cubic-bezier(.2,.8,.3,1) 0.60s both">
  <rect x="188.0" y="112" width="102.0" height="24" rx="7" fill="#161B22" stroke="#232B36"/>
  <circle cx="200.0" cy="124" r="3" fill="#A78BFA"/>
  <text x="210.0" y="128" style="font:500 12px 'JetBrains Mono','Fira Code',ui-monospace,SFMono-Regular,Menlo,Consolas,monospace" fill="#C9D1D9">Playwright</text>
</g>
</g>
<g style="animation:fade .5s ease both">
  <rect x="12" y="170" width="856" height="56" rx="12" fill="#11161D" stroke="#232B36"/>
  <rect x="12" y="184" width="3" height="28" rx="1.5" fill="#34D399" opacity=".8"/>
  <text x="30" y="203.0" style="font:700 13px 'JetBrains Mono','Fira Code',ui-monospace,SFMono-Regular,Menlo,Consolas,monospace" fill="#E6EDF3">Backend</text>
  
<g style="animation:pop .5s cubic-bezier(.2,.8,.3,1) 0.65s both">
  <rect x="188.0" y="180" width="80.4" height="24" rx="7" fill="#161B22" stroke="#232B36"/>
  <circle cx="200.0" cy="192" r="3" fill="#34D399"/>
  <text x="210.0" y="196" style="font:500 12px 'JetBrains Mono','Fira Code',ui-monospace,SFMono-Regular,Menlo,Consolas,monospace" fill="#C9D1D9">Node.js</text>
</g>
<g style="animation:pop .5s cubic-bezier(.2,.8,.3,1) 0.70s both">
  <rect x="276.4" y="180" width="73.2" height="24" rx="7" fill="#161B22" stroke="#232B36"/>
  <circle cx="288.4" cy="192" r="3" fill="#34D399"/>
  <text x="298.4" y="196" style="font:500 12px 'JetBrains Mono','Fira Code',ui-monospace,SFMono-Regular,Menlo,Consolas,monospace" fill="#C9D1D9">NestJS</text>
</g>
<g style="animation:pop .5s cubic-bezier(.2,.8,.3,1) 0.75s both">
  <rect x="357.6" y="180" width="80.4" height="24" rx="7" fill="#161B22" stroke="#232B36"/>
  <circle cx="369.6" cy="192" r="3" fill="#34D399"/>
  <text x="379.6" y="196" style="font:500 12px 'JetBrains Mono','Fira Code',ui-monospace,SFMono-Regular,Menlo,Consolas,monospace" fill="#C9D1D9">Express</text>
</g>
<g style="animation:pop .5s cubic-bezier(.2,.8,.3,1) 0.80s both">
  <rect x="446.0" y="180" width="66.0" height="24" rx="7" fill="#161B22" stroke="#232B36"/>
  <circle cx="458.0" cy="192" r="3" fill="#34D399"/>
  <text x="468.0" y="196" style="font:500 12px 'JetBrains Mono','Fira Code',ui-monospace,SFMono-Regular,Menlo,Consolas,monospace" fill="#C9D1D9">Fiber</text>
</g>
<g style="animation:pop .5s cubic-bezier(.2,.8,.3,1) 0.85s both">
  <rect x="520.0" y="180" width="58.8" height="24" rx="7" fill="#161B22" stroke="#232B36"/>
  <circle cx="532.0" cy="192" r="3" fill="#34D399"/>
  <text x="542.0" y="196" style="font:500 12px 'JetBrains Mono','Fira Code',ui-monospace,SFMono-Regular,Menlo,Consolas,monospace" fill="#C9D1D9">gRPC</text>
</g>
<g style="animation:pop .5s cubic-bezier(.2,.8,.3,1) 0.90s both">
  <rect x="586.8" y="180" width="80.4" height="24" rx="7" fill="#161B22" stroke="#232B36"/>
  <circle cx="598.8" cy="192" r="3" fill="#34D399"/>
  <text x="608.8" y="196" style="font:500 12px 'JetBrains Mono','Fira Code',ui-monospace,SFMono-Regular,Menlo,Consolas,monospace" fill="#C9D1D9">GraphQL</text>
</g>
<g style="animation:pop .5s cubic-bezier(.2,.8,.3,1) 0.95s both">
  <rect x="675.2" y="180" width="58.8" height="24" rx="7" fill="#161B22" stroke="#232B36"/>
  <circle cx="687.2" cy="192" r="3" fill="#34D399"/>
  <text x="697.2" y="196" style="font:500 12px 'JetBrains Mono','Fira Code',ui-monospace,SFMono-Regular,Menlo,Consolas,monospace" fill="#C9D1D9">REST</text>
</g>
<g style="animation:pop .5s cubic-bezier(.2,.8,.3,1) 1.00s both">
  <rect x="742.0" y="180" width="102.0" height="24" rx="7" fill="#161B22" stroke="#232B36"/>
  <circle cx="754.0" cy="192" r="3" fill="#34D399"/>
  <text x="764.0" y="196" style="font:500 12px 'JetBrains Mono','Fira Code',ui-monospace,SFMono-Regular,Menlo,Consolas,monospace" fill="#C9D1D9">WebSockets</text>
</g>
</g>
<g style="animation:fade .5s ease both">
  <rect x="12" y="238" width="856" height="86" rx="12" fill="#11161D" stroke="#232B36"/>
  <rect x="12" y="252" width="3" height="58" rx="1.5" fill="#FBBF24" opacity=".8"/>
  <text x="30" y="286.0" style="font:700 13px 'JetBrains Mono','Fira Code',ui-monospace,SFMono-Regular,Menlo,Consolas,monospace" fill="#E6EDF3">Storage &amp; streams</text>
  
<g style="animation:pop .5s cubic-bezier(.2,.8,.3,1) 1.05s both">
  <rect x="188.0" y="248" width="102.0" height="24" rx="7" fill="#161B22" stroke="#232B36"/>
  <circle cx="200.0" cy="260" r="3" fill="#FBBF24"/>
  <text x="210.0" y="264" style="font:500 12px 'JetBrains Mono','Fira Code',ui-monospace,SFMono-Regular,Menlo,Consolas,monospace" fill="#C9D1D9">PostgreSQL</text>
</g>
<g style="animation:pop .5s cubic-bezier(.2,.8,.3,1) 1.10s both">
  <rect x="298.0" y="248" width="87.6" height="24" rx="7" fill="#161B22" stroke="#232B36"/>
  <circle cx="310.0" cy="260" r="3" fill="#FBBF24"/>
  <text x="320.0" y="264" style="font:500 12px 'JetBrains Mono','Fira Code',ui-monospace,SFMono-Regular,Menlo,Consolas,monospace" fill="#C9D1D9">pgvector</text>
</g>
<g style="animation:pop .5s cubic-bezier(.2,.8,.3,1) 1.15s both">
  <rect x="393.6" y="248" width="66.0" height="24" rx="7" fill="#161B22" stroke="#232B36"/>
  <circle cx="405.6" cy="260" r="3" fill="#FBBF24"/>
  <text x="415.6" y="264" style="font:500 12px 'JetBrains Mono','Fira Code',ui-monospace,SFMono-Regular,Menlo,Consolas,monospace" fill="#C9D1D9">Redis</text>
</g>
<g style="animation:pop .5s cubic-bezier(.2,.8,.3,1) 1.20s both">
  <rect x="467.6" y="248" width="80.4" height="24" rx="7" fill="#161B22" stroke="#232B36"/>
  <circle cx="479.6" cy="260" r="3" fill="#FBBF24"/>
  <text x="489.6" y="264" style="font:500 12px 'JetBrains Mono','Fira Code',ui-monospace,SFMono-Regular,Menlo,Consolas,monospace" fill="#C9D1D9">MongoDB</text>
</g>
<g style="animation:pop .5s cubic-bezier(.2,.8,.3,1) 1.25s both">
  <rect x="556.0" y="248" width="66.0" height="24" rx="7" fill="#161B22" stroke="#232B36"/>
  <circle cx="568.0" cy="260" r="3" fill="#FBBF24"/>
  <text x="578.0" y="264" style="font:500 12px 'JetBrains Mono','Fira Code',ui-monospace,SFMono-Regular,Menlo,Consolas,monospace" fill="#C9D1D9">Kafka</text>
</g>
<g style="animation:pop .5s cubic-bezier(.2,.8,.3,1) 1.30s both">
  <rect x="630.0" y="248" width="102.0" height="24" rx="7" fill="#161B22" stroke="#232B36"/>
  <circle cx="642.0" cy="260" r="3" fill="#FBBF24"/>
  <text x="652.0" y="264" style="font:500 12px 'JetBrains Mono','Fira Code',ui-monospace,SFMono-Regular,Menlo,Consolas,monospace" fill="#C9D1D9">ClickHouse</text>
</g>
<g style="animation:pop .5s cubic-bezier(.2,.8,.3,1) 1.35s both">
  <rect x="740.0" y="248" width="102.0" height="24" rx="7" fill="#161B22" stroke="#232B36"/>
  <circle cx="752.0" cy="260" r="3" fill="#FBBF24"/>
  <text x="762.0" y="264" style="font:500 12px 'JetBrains Mono','Fira Code',ui-monospace,SFMono-Regular,Menlo,Consolas,monospace" fill="#C9D1D9">OpenSearch</text>
</g>
<g style="animation:pop .5s cubic-bezier(.2,.8,.3,1) 1.40s both">
  <rect x="188.0" y="278" width="44.4" height="24" rx="7" fill="#161B22" stroke="#232B36"/>
  <circle cx="200.0" cy="290" r="3" fill="#FBBF24"/>
  <text x="210.0" y="294" style="font:500 12px 'JetBrains Mono','Fira Code',ui-monospace,SFMono-Regular,Menlo,Consolas,monospace" fill="#C9D1D9">S3</text>
</g>
</g>
<g style="animation:fade .5s ease both">
  <rect x="12" y="336" width="856" height="86" rx="12" fill="#11161D" stroke="#232B36"/>
  <rect x="12" y="350" width="3" height="58" rx="1.5" fill="#FB7185" opacity=".8"/>
  <text x="30" y="384.0" style="font:700 13px 'JetBrains Mono','Fira Code',ui-monospace,SFMono-Regular,Menlo,Consolas,monospace" fill="#E6EDF3">GenAI &amp; RAG</text>
  
<g style="animation:pop .5s cubic-bezier(.2,.8,.3,1) 1.45s both">
  <rect x="188.0" y="346" width="94.8" height="24" rx="7" fill="#161B22" stroke="#232B36"/>
  <circle cx="200.0" cy="358" r="3" fill="#FB7185"/>
  <text x="210.0" y="362" style="font:500 12px 'JetBrains Mono','Fira Code',ui-monospace,SFMono-Regular,Menlo,Consolas,monospace" fill="#C9D1D9">LangChain</text>
</g>
<g style="animation:pop .5s cubic-bezier(.2,.8,.3,1) 1.50s both">
  <rect x="290.8" y="346" width="102.0" height="24" rx="7" fill="#161B22" stroke="#232B36"/>
  <circle cx="302.8" cy="358" r="3" fill="#FB7185"/>
  <text x="312.8" y="362" style="font:500 12px 'JetBrains Mono','Fira Code',ui-monospace,SFMono-Regular,Menlo,Consolas,monospace" fill="#C9D1D9">LlamaIndex</text>
</g>
<g style="animation:pop .5s cubic-bezier(.2,.8,.3,1) 1.55s both">
  <rect x="400.8" y="346" width="73.2" height="24" rx="7" fill="#161B22" stroke="#232B36"/>
  <circle cx="412.8" cy="358" r="3" fill="#FB7185"/>
  <text x="422.8" y="362" style="font:500 12px 'JetBrains Mono','Fira Code',ui-monospace,SFMono-Regular,Menlo,Consolas,monospace" fill="#C9D1D9">OpenAI</text>
</g>
<g style="animation:pop .5s cubic-bezier(.2,.8,.3,1) 1.60s both">
  <rect x="482.0" y="346" width="94.8" height="24" rx="7" fill="#161B22" stroke="#232B36"/>
  <circle cx="494.0" cy="358" r="3" fill="#FB7185"/>
  <text x="504.0" y="362" style="font:500 12px 'JetBrains Mono','Fira Code',ui-monospace,SFMono-Regular,Menlo,Consolas,monospace" fill="#C9D1D9">Anthropic</text>
</g>
<g style="animation:pop .5s cubic-bezier(.2,.8,.3,1) 1.65s both">
  <rect x="584.8" y="346" width="73.2" height="24" rx="7" fill="#161B22" stroke="#232B36"/>
  <circle cx="596.8" cy="358" r="3" fill="#FB7185"/>
  <text x="606.8" y="362" style="font:500 12px 'JetBrains Mono','Fira Code',ui-monospace,SFMono-Regular,Menlo,Consolas,monospace" fill="#C9D1D9">Ollama</text>
</g>
<g style="animation:pop .5s cubic-bezier(.2,.8,.3,1) 1.70s both">
  <rect x="666.0" y="346" width="73.2" height="24" rx="7" fill="#161B22" stroke="#232B36"/>
  <circle cx="678.0" cy="358" r="3" fill="#FB7185"/>
  <text x="688.0" y="362" style="font:500 12px 'JetBrains Mono','Fira Code',ui-monospace,SFMono-Regular,Menlo,Consolas,monospace" fill="#C9D1D9">Qdrant</text>
</g>
<g style="animation:pop .5s cubic-bezier(.2,.8,.3,1) 1.75s both">
  <rect x="188.0" y="376" width="123.6" height="24" rx="7" fill="#161B22" stroke="#232B36"/>
  <circle cx="200.0" cy="388" r="3" fill="#FB7185"/>
  <text x="210.0" y="392" style="font:500 12px 'JetBrains Mono','Fira Code',ui-monospace,SFMono-Regular,Menlo,Consolas,monospace" fill="#C9D1D9">Hybrid search</text>
</g>
<g style="animation:pop .5s cubic-bezier(.2,.8,.3,1) 1.80s both">
  <rect x="319.6" y="376" width="94.8" height="24" rx="7" fill="#161B22" stroke="#232B36"/>
  <circle cx="331.6" cy="388" r="3" fill="#FB7185"/>
  <text x="341.6" y="392" style="font:500 12px 'JetBrains Mono','Fira Code',ui-monospace,SFMono-Regular,Menlo,Consolas,monospace" fill="#C9D1D9">Rerankers</text>
</g>
<g style="animation:pop .5s cubic-bezier(.2,.8,.3,1) 1.85s both">
  <rect x="422.4" y="376" width="66.0" height="24" rx="7" fill="#161B22" stroke="#232B36"/>
  <circle cx="434.4" cy="388" r="3" fill="#FB7185"/>
  <text x="444.4" y="392" style="font:500 12px 'JetBrains Mono','Fira Code',ui-monospace,SFMono-Regular,Menlo,Consolas,monospace" fill="#C9D1D9">Ragas</text>
</g>
</g>
<g style="animation:fade .5s ease both">
  <rect x="12" y="434" width="856" height="86" rx="12" fill="#11161D" stroke="#232B36"/>
  <rect x="12" y="448" width="3" height="58" rx="1.5" fill="#60A5FA" opacity=".8"/>
  <text x="30" y="482.0" style="font:700 13px 'JetBrains Mono','Fira Code',ui-monospace,SFMono-Regular,Menlo,Consolas,monospace" fill="#E6EDF3">Platform</text>
  
<g style="animation:pop .5s cubic-bezier(.2,.8,.3,1) 1.90s both">
  <rect x="188.0" y="444" width="51.6" height="24" rx="7" fill="#161B22" stroke="#232B36"/>
  <circle cx="200.0" cy="456" r="3" fill="#60A5FA"/>
  <text x="210.0" y="460" style="font:500 12px 'JetBrains Mono','Fira Code',ui-monospace,SFMono-Regular,Menlo,Consolas,monospace" fill="#C9D1D9">AWS</text>
</g>
<g style="animation:pop .5s cubic-bezier(.2,.8,.3,1) 1.95s both">
  <rect x="247.6" y="444" width="73.2" height="24" rx="7" fill="#161B22" stroke="#232B36"/>
  <circle cx="259.6" cy="456" r="3" fill="#60A5FA"/>
  <text x="269.6" y="460" style="font:500 12px 'JetBrains Mono','Fira Code',ui-monospace,SFMono-Regular,Menlo,Consolas,monospace" fill="#C9D1D9">Docker</text>
</g>
<g style="animation:pop .5s cubic-bezier(.2,.8,.3,1) 2.00s both">
  <rect x="328.8" y="444" width="102.0" height="24" rx="7" fill="#161B22" stroke="#232B36"/>
  <circle cx="340.8" cy="456" r="3" fill="#60A5FA"/>
  <text x="350.8" y="460" style="font:500 12px 'JetBrains Mono','Fira Code',ui-monospace,SFMono-Regular,Menlo,Consolas,monospace" fill="#C9D1D9">Kubernetes</text>
</g>
<g style="animation:pop .5s cubic-bezier(.2,.8,.3,1) 2.05s both">
  <rect x="438.8" y="444" width="94.8" height="24" rx="7" fill="#161B22" stroke="#232B36"/>
  <circle cx="450.8" cy="456" r="3" fill="#60A5FA"/>
  <text x="460.8" y="460" style="font:500 12px 'JetBrains Mono','Fira Code',ui-monospace,SFMono-Regular,Menlo,Consolas,monospace" fill="#C9D1D9">Terraform</text>
</g>
<g style="animation:pop .5s cubic-bezier(.2,.8,.3,1) 2.10s both">
  <rect x="541.6" y="444" width="130.8" height="24" rx="7" fill="#161B22" stroke="#232B36"/>
  <circle cx="553.6" cy="456" r="3" fill="#60A5FA"/>
  <text x="563.6" y="460" style="font:500 12px 'JetBrains Mono','Fira Code',ui-monospace,SFMono-Regular,Menlo,Consolas,monospace" fill="#C9D1D9">GitHub Actions</text>
</g>
<g style="animation:pop .5s cubic-bezier(.2,.8,.3,1) 2.15s both">
  <rect x="680.4" y="444" width="123.6" height="24" rx="7" fill="#161B22" stroke="#232B36"/>
  <circle cx="692.4" cy="456" r="3" fill="#60A5FA"/>
  <text x="702.4" y="460" style="font:500 12px 'JetBrains Mono','Fira Code',ui-monospace,SFMono-Regular,Menlo,Consolas,monospace" fill="#C9D1D9">OpenTelemetry</text>
</g>
<g style="animation:pop .5s cubic-bezier(.2,.8,.3,1) 2.20s both">
  <rect x="188.0" y="474" width="80.4" height="24" rx="7" fill="#161B22" stroke="#232B36"/>
  <circle cx="200.0" cy="486" r="3" fill="#60A5FA"/>
  <text x="210.0" y="490" style="font:500 12px 'JetBrains Mono','Fira Code',ui-monospace,SFMono-Regular,Menlo,Consolas,monospace" fill="#C9D1D9">Grafana</text>
</g>
</g>
</svg>